<mxfile host="app.diagrams.net" modified="2024-02-16T19:05:42.672Z" agent="Mozilla/5.0 (Macintosh; Intel Mac OS X 10_15_7) AppleWebKit/537.36 (KHTML, like Gecko) Chrome/121.0.0.0 Safari/537.36" etag="rBE58KCqixxXlR58C57u" version="23.1.5" type="device">
  <diagram id="PRVg0jKwboUAsYTjcUtd" name="Page-1">
    <mxGraphModel dx="2074" dy="1121" grid="1" gridSize="10" guides="1" tooltips="1" connect="1" arrows="1" fold="1" page="1" pageScale="1" pageWidth="827" pageHeight="1169" math="0" shadow="0">
      <root>
        <mxCell id="0" />
        <mxCell id="1" parent="0" />
        <mxCell id="TidZbL0mFCrHU-RYx2RD-15" value="tcp &lt;br&gt;connect/consume" style="text;html=1;align=center;verticalAlign=middle;resizable=0;points=[];autosize=1;strokeColor=none;fillColor=none;fontSize=11;" parent="1" vertex="1">
          <mxGeometry x="425" y="660" width="110" height="40" as="geometry" />
        </mxCell>
        <mxCell id="Hav9Z-SQyte3qZwMK2kI-1" value="Akamai SIEM API Endpoint" style="rounded=1;whiteSpace=wrap;html=1;fontSize=14;fillColor=#dae8fc;strokeColor=#6c8ebf;" parent="1" vertex="1">
          <mxGeometry x="279" y="60" width="300" height="60" as="geometry" />
        </mxCell>
        <mxCell id="Hav9Z-SQyte3qZwMK2kI-10" value="Jobs Queue" style="shape=cylinder3;whiteSpace=wrap;html=1;boundedLbl=1;backgroundOutline=1;size=15;fontSize=11;fillColor=#d5e8d4;strokeColor=#82b366;" parent="1" vertex="1">
          <mxGeometry x="69" y="260" width="60" height="70" as="geometry" />
        </mxCell>
        <mxCell id="Hav9Z-SQyte3qZwMK2kI-26" value="" style="edgeStyle=orthogonalEdgeStyle;rounded=0;orthogonalLoop=1;jettySize=auto;html=1;startArrow=classic;startFill=1;" parent="1" source="Hav9Z-SQyte3qZwMK2kI-16" target="Hav9Z-SQyte3qZwMK2kI-17" edge="1">
          <mxGeometry relative="1" as="geometry" />
        </mxCell>
        <mxCell id="Hav9Z-SQyte3qZwMK2kI-43" style="edgeStyle=orthogonalEdgeStyle;rounded=0;orthogonalLoop=1;jettySize=auto;html=1;exitX=1;exitY=0.5;exitDx=0;exitDy=0;entryX=0;entryY=0.5;entryDx=0;entryDy=0;startArrow=none;startFill=0;" parent="1" source="Hav9Z-SQyte3qZwMK2kI-16" target="Hav9Z-SQyte3qZwMK2kI-35" edge="1">
          <mxGeometry relative="1" as="geometry" />
        </mxCell>
        <mxCell id="TidZbL0mFCrHU-RYx2RD-11" value="" style="edgeStyle=orthogonalEdgeStyle;rounded=0;orthogonalLoop=1;jettySize=auto;html=1;fontSize=14;startArrow=classic;startFill=1;" parent="1" source="Hav9Z-SQyte3qZwMK2kI-16" target="Hav9Z-SQyte3qZwMK2kI-34" edge="1">
          <mxGeometry relative="1" as="geometry" />
        </mxCell>
        <mxCell id="TidZbL0mFCrHU-RYx2RD-12" value="" style="edgeStyle=orthogonalEdgeStyle;rounded=0;orthogonalLoop=1;jettySize=auto;html=1;fontSize=14;startArrow=classic;startFill=1;" parent="1" source="Hav9Z-SQyte3qZwMK2kI-16" target="Hav9Z-SQyte3qZwMK2kI-34" edge="1">
          <mxGeometry relative="1" as="geometry" />
        </mxCell>
        <mxCell id="Hav9Z-SQyte3qZwMK2kI-16" value="Consumer" style="rounded=1;whiteSpace=wrap;html=1;fontSize=14;fillColor=#d5e8d4;strokeColor=#82b366;" parent="1" vertex="1">
          <mxGeometry x="369" y="272.5" width="120" height="65" as="geometry" />
        </mxCell>
        <mxCell id="Hav9Z-SQyte3qZwMK2kI-28" style="edgeStyle=orthogonalEdgeStyle;rounded=0;orthogonalLoop=1;jettySize=auto;html=1;entryX=1;entryY=0.5;entryDx=0;entryDy=0;entryPerimeter=0;startArrow=classic;startFill=1;" parent="1" source="Hav9Z-SQyte3qZwMK2kI-17" target="Hav9Z-SQyte3qZwMK2kI-10" edge="1">
          <mxGeometry relative="1" as="geometry" />
        </mxCell>
        <mxCell id="Hav9Z-SQyte3qZwMK2kI-17" value="Consume the jobs scheduled for collecting" style="shape=process;whiteSpace=wrap;html=1;backgroundOutline=1;fontSize=11;fillColor=#f5f5f5;fontColor=#333333;strokeColor=#666666;" parent="1" vertex="1">
          <mxGeometry x="189" y="275" width="120" height="60" as="geometry" />
        </mxCell>
        <mxCell id="Hav9Z-SQyte3qZwMK2kI-19" value="cron &lt;br style=&quot;font-size: 11px;&quot;&gt;service" style="text;html=1;align=center;verticalAlign=middle;resizable=0;points=[];autosize=1;strokeColor=none;fillColor=none;fontSize=11;" parent="1" vertex="1">
          <mxGeometry x="136" y="406" width="60" height="40" as="geometry" />
        </mxCell>
        <mxCell id="Hav9Z-SQyte3qZwMK2kI-25" value="mqtt &lt;br style=&quot;font-size: 11px;&quot;&gt;consume" style="text;html=1;align=center;verticalAlign=middle;resizable=0;points=[];autosize=1;strokeColor=none;fillColor=none;fontSize=11;" parent="1" vertex="1">
          <mxGeometry x="119" y="305" width="70" height="40" as="geometry" />
        </mxCell>
        <mxCell id="Hav9Z-SQyte3qZwMK2kI-30" value="mqtt &lt;br style=&quot;font-size: 11px;&quot;&gt;connect" style="text;html=1;align=center;verticalAlign=middle;resizable=0;points=[];autosize=1;strokeColor=none;fillColor=none;fontSize=11;" parent="1" vertex="1">
          <mxGeometry x="309" y="305" width="60" height="40" as="geometry" />
        </mxCell>
        <mxCell id="Hav9Z-SQyte3qZwMK2kI-38" value="" style="edgeStyle=orthogonalEdgeStyle;rounded=0;orthogonalLoop=1;jettySize=auto;html=1;startArrow=classic;startFill=1;" parent="1" source="Hav9Z-SQyte3qZwMK2kI-32" target="Hav9Z-SQyte3qZwMK2kI-1" edge="1">
          <mxGeometry relative="1" as="geometry" />
        </mxCell>
        <mxCell id="TidZbL0mFCrHU-RYx2RD-13" style="edgeStyle=orthogonalEdgeStyle;rounded=0;orthogonalLoop=1;jettySize=auto;html=1;exitX=0.5;exitY=1;exitDx=0;exitDy=0;fontSize=14;startArrow=classic;startFill=1;" parent="1" source="Hav9Z-SQyte3qZwMK2kI-32" target="Hav9Z-SQyte3qZwMK2kI-16" edge="1">
          <mxGeometry relative="1" as="geometry" />
        </mxCell>
        <mxCell id="Hav9Z-SQyte3qZwMK2kI-32" value="Authenticate with EdgeGrid library" style="shape=process;whiteSpace=wrap;html=1;backgroundOutline=1;fontSize=11;fillColor=#f5f5f5;fontColor=#333333;strokeColor=#666666;" parent="1" vertex="1">
          <mxGeometry x="279" y="170" width="120" height="60" as="geometry" />
        </mxCell>
        <mxCell id="Hav9Z-SQyte3qZwMK2kI-47" style="edgeStyle=orthogonalEdgeStyle;rounded=0;orthogonalLoop=1;jettySize=auto;html=1;exitX=0.5;exitY=0;exitDx=0;exitDy=0;startArrow=classic;startFill=1;entryX=0.5;entryY=1;entryDx=0;entryDy=0;" parent="1" source="Hav9Z-SQyte3qZwMK2kI-34" target="Hav9Z-SQyte3qZwMK2kI-1" edge="1">
          <mxGeometry relative="1" as="geometry">
            <mxPoint x="519" y="120" as="targetPoint" />
          </mxGeometry>
        </mxCell>
        <mxCell id="Hav9Z-SQyte3qZwMK2kI-34" value="Fetch events based on time offset of the job" style="shape=process;whiteSpace=wrap;html=1;backgroundOutline=1;fontSize=11;fillColor=#f5f5f5;fontColor=#333333;strokeColor=#666666;" parent="1" vertex="1">
          <mxGeometry x="459" y="170" width="120" height="60" as="geometry" />
        </mxCell>
        <mxCell id="Hav9Z-SQyte3qZwMK2kI-45" style="edgeStyle=orthogonalEdgeStyle;rounded=0;orthogonalLoop=1;jettySize=auto;html=1;exitX=1;exitY=0.5;exitDx=0;exitDy=0;entryX=0;entryY=0.5;entryDx=0;entryDy=0;entryPerimeter=0;startArrow=none;startFill=0;" parent="1" source="Hav9Z-SQyte3qZwMK2kI-35" target="Hav9Z-SQyte3qZwMK2kI-36" edge="1">
          <mxGeometry relative="1" as="geometry" />
        </mxCell>
        <mxCell id="Hav9Z-SQyte3qZwMK2kI-35" value="Store the events collected in the processing queue" style="shape=process;whiteSpace=wrap;html=1;backgroundOutline=1;fontSize=11;fillColor=#f5f5f5;fontColor=#333333;strokeColor=#666666;" parent="1" vertex="1">
          <mxGeometry x="549" y="275" width="120" height="60" as="geometry" />
        </mxCell>
        <mxCell id="Hav9Z-SQyte3qZwMK2kI-36" value="Events&lt;br style=&quot;font-size: 11px;&quot;&gt;Queue" style="shape=cylinder3;whiteSpace=wrap;html=1;boundedLbl=1;backgroundOutline=1;size=15;fontSize=11;fillColor=#d5e8d4;strokeColor=#82b366;" parent="1" vertex="1">
          <mxGeometry x="729" y="260" width="60" height="70" as="geometry" />
        </mxCell>
        <mxCell id="Hav9Z-SQyte3qZwMK2kI-44" value="mqtt &lt;br style=&quot;font-size: 11px;&quot;&gt;connect" style="text;html=1;align=center;verticalAlign=middle;resizable=0;points=[];autosize=1;strokeColor=none;fillColor=none;fontSize=11;" parent="1" vertex="1">
          <mxGeometry x="489" y="305" width="60" height="40" as="geometry" />
        </mxCell>
        <mxCell id="Hav9Z-SQyte3qZwMK2kI-46" value="mqtt &lt;br style=&quot;font-size: 11px;&quot;&gt;publish" style="text;html=1;align=center;verticalAlign=middle;resizable=0;points=[];autosize=1;strokeColor=none;fillColor=none;fontSize=11;" parent="1" vertex="1">
          <mxGeometry x="669" y="305" width="60" height="40" as="geometry" />
        </mxCell>
        <mxCell id="Hav9Z-SQyte3qZwMK2kI-48" value="https" style="text;html=1;align=center;verticalAlign=middle;resizable=0;points=[];autosize=1;strokeColor=none;fillColor=none;fontSize=11;" parent="1" vertex="1">
          <mxGeometry x="289" y="140" width="50" height="30" as="geometry" />
        </mxCell>
        <mxCell id="Hav9Z-SQyte3qZwMK2kI-49" value="https" style="text;html=1;align=center;verticalAlign=middle;resizable=0;points=[];autosize=1;strokeColor=none;fillColor=none;fontSize=11;" parent="1" vertex="1">
          <mxGeometry x="519" y="140" width="50" height="30" as="geometry" />
        </mxCell>
        <mxCell id="Hav9Z-SQyte3qZwMK2kI-71" style="edgeStyle=orthogonalEdgeStyle;rounded=0;orthogonalLoop=1;jettySize=auto;html=1;exitX=0.5;exitY=1;exitDx=0;exitDy=0;entryX=0.5;entryY=0;entryDx=0;entryDy=0;fontSize=11;startArrow=none;startFill=0;" parent="1" source="Hav9Z-SQyte3qZwMK2kI-50" target="Hav9Z-SQyte3qZwMK2kI-59" edge="1">
          <mxGeometry relative="1" as="geometry" />
        </mxCell>
        <mxCell id="Hav9Z-SQyte3qZwMK2kI-50" value="Processor" style="rounded=1;whiteSpace=wrap;html=1;fontSize=14;fillColor=#d5e8d4;strokeColor=#82b366;" parent="1" vertex="1">
          <mxGeometry x="369" y="368" width="120" height="65" as="geometry" />
        </mxCell>
        <mxCell id="Hav9Z-SQyte3qZwMK2kI-53" style="edgeStyle=orthogonalEdgeStyle;rounded=0;orthogonalLoop=1;jettySize=auto;html=1;entryX=0.5;entryY=1;entryDx=0;entryDy=0;entryPerimeter=0;fontSize=11;startArrow=classic;startFill=1;" parent="1" source="Hav9Z-SQyte3qZwMK2kI-52" target="Hav9Z-SQyte3qZwMK2kI-36" edge="1">
          <mxGeometry relative="1" as="geometry" />
        </mxCell>
        <mxCell id="Hav9Z-SQyte3qZwMK2kI-56" value="" style="edgeStyle=orthogonalEdgeStyle;rounded=0;orthogonalLoop=1;jettySize=auto;html=1;fontSize=11;startArrow=classic;startFill=1;" parent="1" source="Hav9Z-SQyte3qZwMK2kI-52" target="Hav9Z-SQyte3qZwMK2kI-50" edge="1">
          <mxGeometry relative="1" as="geometry" />
        </mxCell>
        <mxCell id="Hav9Z-SQyte3qZwMK2kI-52" value="Consume the events collected and scheduled from processing" style="shape=process;whiteSpace=wrap;html=1;backgroundOutline=1;fontSize=11;fillColor=#f5f5f5;fontColor=#333333;strokeColor=#666666;" parent="1" vertex="1">
          <mxGeometry x="549" y="370" width="120" height="60" as="geometry" />
        </mxCell>
        <mxCell id="Hav9Z-SQyte3qZwMK2kI-54" value="mqtt &lt;br style=&quot;font-size: 11px;&quot;&gt;consume" style="text;html=1;align=center;verticalAlign=middle;resizable=0;points=[];autosize=1;strokeColor=none;fillColor=none;fontSize=11;" parent="1" vertex="1">
          <mxGeometry x="669" y="399" width="70" height="40" as="geometry" />
        </mxCell>
        <mxCell id="Hav9Z-SQyte3qZwMK2kI-57" value="mqtt &lt;br style=&quot;font-size: 11px;&quot;&gt;connect" style="text;html=1;align=center;verticalAlign=middle;resizable=0;points=[];autosize=1;strokeColor=none;fillColor=none;fontSize=11;" parent="1" vertex="1">
          <mxGeometry x="489" y="399" width="60" height="40" as="geometry" />
        </mxCell>
        <mxCell id="TidZbL0mFCrHU-RYx2RD-3" value="" style="edgeStyle=orthogonalEdgeStyle;rounded=0;orthogonalLoop=1;jettySize=auto;html=1;" parent="1" source="Hav9Z-SQyte3qZwMK2kI-59" target="Hav9Z-SQyte3qZwMK2kI-60" edge="1">
          <mxGeometry relative="1" as="geometry" />
        </mxCell>
        <mxCell id="Hav9Z-SQyte3qZwMK2kI-59" value="Process, convert &amp;amp; transform the events collected" style="shape=process;whiteSpace=wrap;html=1;backgroundOutline=1;fontSize=11;fillColor=#f5f5f5;fontColor=#333333;strokeColor=#666666;" parent="1" vertex="1">
          <mxGeometry x="369" y="470" width="120" height="60" as="geometry" />
        </mxCell>
        <mxCell id="Hav9Z-SQyte3qZwMK2kI-60" value="Apache Kafka&lt;br style=&quot;font-size: 14px;&quot;&gt;Broker" style="shape=cylinder3;whiteSpace=wrap;html=1;boundedLbl=1;backgroundOutline=1;size=15;fontSize=14;fillColor=#d5e8d4;strokeColor=#82b366;" parent="1" vertex="1">
          <mxGeometry x="379" y="570" width="100" height="90" as="geometry" />
        </mxCell>
        <mxCell id="Hav9Z-SQyte3qZwMK2kI-69" style="edgeStyle=orthogonalEdgeStyle;rounded=0;orthogonalLoop=1;jettySize=auto;html=1;exitX=0;exitY=0.5;exitDx=0;exitDy=0;entryX=1;entryY=0.5;entryDx=0;entryDy=0;fontSize=11;startArrow=classic;startFill=1;" parent="1" source="Hav9Z-SQyte3qZwMK2kI-67" target="Hav9Z-SQyte3qZwMK2kI-68" edge="1">
          <mxGeometry relative="1" as="geometry" />
        </mxCell>
        <mxCell id="Hav9Z-SQyte3qZwMK2kI-67" value="Scheduler" style="rounded=1;whiteSpace=wrap;html=1;fontSize=14;fillColor=#d5e8d4;strokeColor=#82b366;" parent="1" vertex="1">
          <mxGeometry x="189" y="368" width="120" height="65" as="geometry" />
        </mxCell>
        <mxCell id="TidZbL0mFCrHU-RYx2RD-27" style="edgeStyle=orthogonalEdgeStyle;rounded=0;orthogonalLoop=1;jettySize=auto;html=1;entryX=0.5;entryY=1;entryDx=0;entryDy=0;entryPerimeter=0;fontSize=14;startArrow=none;startFill=0;" parent="1" source="Hav9Z-SQyte3qZwMK2kI-68" target="Hav9Z-SQyte3qZwMK2kI-10" edge="1">
          <mxGeometry relative="1" as="geometry" />
        </mxCell>
        <mxCell id="Hav9Z-SQyte3qZwMK2kI-68" value="Create jobs to to collect events" style="shape=process;whiteSpace=wrap;html=1;backgroundOutline=1;fontSize=11;fillColor=#f5f5f5;fontColor=#333333;strokeColor=#666666;" parent="1" vertex="1">
          <mxGeometry x="56.5" y="370" width="85" height="60" as="geometry" />
        </mxCell>
        <mxCell id="Hav9Z-SQyte3qZwMK2kI-72" value="async&amp;nbsp;&lt;br style=&quot;font-size: 11px;&quot;&gt;request" style="text;html=1;align=center;verticalAlign=middle;resizable=0;points=[];autosize=1;strokeColor=none;fillColor=none;fontSize=11;" parent="1" vertex="1">
          <mxGeometry x="279" y="232.5" width="60" height="40" as="geometry" />
        </mxCell>
        <mxCell id="Hav9Z-SQyte3qZwMK2kI-73" value="async&lt;br style=&quot;font-size: 11px;&quot;&gt;request" style="text;html=1;align=center;verticalAlign=middle;resizable=0;points=[];autosize=1;strokeColor=none;fillColor=none;fontSize=11;" parent="1" vertex="1">
          <mxGeometry x="519" y="230" width="60" height="40" as="geometry" />
        </mxCell>
        <mxCell id="Hav9Z-SQyte3qZwMK2kI-74" value="async&amp;nbsp;&lt;br style=&quot;font-size: 11px;&quot;&gt;request" style="text;html=1;align=center;verticalAlign=middle;resizable=0;points=[];autosize=1;strokeColor=none;fillColor=none;fontSize=11;" parent="1" vertex="1">
          <mxGeometry x="429" y="431" width="60" height="40" as="geometry" />
        </mxCell>
        <mxCell id="TidZbL0mFCrHU-RYx2RD-10" value="" style="edgeStyle=orthogonalEdgeStyle;rounded=0;orthogonalLoop=1;jettySize=auto;html=1;fontSize=14;startArrow=classic;startFill=1;" parent="1" source="TidZbL0mFCrHU-RYx2RD-4" target="TidZbL0mFCrHU-RYx2RD-8" edge="1">
          <mxGeometry relative="1" as="geometry" />
        </mxCell>
        <mxCell id="TidZbL0mFCrHU-RYx2RD-21" style="edgeStyle=orthogonalEdgeStyle;rounded=0;orthogonalLoop=1;jettySize=auto;html=1;exitX=0.5;exitY=1;exitDx=0;exitDy=0;entryX=0.5;entryY=0;entryDx=0;entryDy=0;fontSize=14;startArrow=none;startFill=0;" parent="1" source="TidZbL0mFCrHU-RYx2RD-4" target="TidZbL0mFCrHU-RYx2RD-19" edge="1">
          <mxGeometry relative="1" as="geometry" />
        </mxCell>
        <mxCell id="TidZbL0mFCrHU-RYx2RD-4" value="Exporter" style="rounded=1;whiteSpace=wrap;html=1;fontSize=14;fillColor=#d5e8d4;strokeColor=#82b366;" parent="1" vertex="1">
          <mxGeometry x="369" y="800" width="120" height="65" as="geometry" />
        </mxCell>
        <mxCell id="TidZbL0mFCrHU-RYx2RD-9" value="" style="edgeStyle=orthogonalEdgeStyle;rounded=0;orthogonalLoop=1;jettySize=auto;html=1;fontSize=11;startArrow=classic;startFill=1;" parent="1" source="TidZbL0mFCrHU-RYx2RD-8" target="Hav9Z-SQyte3qZwMK2kI-60" edge="1">
          <mxGeometry relative="1" as="geometry" />
        </mxCell>
        <mxCell id="TidZbL0mFCrHU-RYx2RD-8" value="Consume the events processed" style="shape=process;whiteSpace=wrap;html=1;backgroundOutline=1;fontSize=11;fillColor=#f5f5f5;fontColor=#333333;strokeColor=#666666;" parent="1" vertex="1">
          <mxGeometry x="369" y="700" width="120" height="60" as="geometry" />
        </mxCell>
        <mxCell id="TidZbL0mFCrHU-RYx2RD-14" value="tcp &lt;br&gt;connect/publish" style="text;html=1;align=center;verticalAlign=middle;resizable=0;points=[];autosize=1;strokeColor=none;fillColor=none;fontSize=11;" parent="1" vertex="1">
          <mxGeometry x="429" y="530" width="100" height="40" as="geometry" />
        </mxCell>
        <mxCell id="TidZbL0mFCrHU-RYx2RD-16" value="async&amp;nbsp;&lt;br style=&quot;font-size: 11px;&quot;&gt;request" style="text;html=1;align=center;verticalAlign=middle;resizable=0;points=[];autosize=1;strokeColor=none;fillColor=none;fontSize=11;" parent="1" vertex="1">
          <mxGeometry x="429" y="760" width="60" height="40" as="geometry" />
        </mxCell>
        <mxCell id="TidZbL0mFCrHU-RYx2RD-34" style="edgeStyle=orthogonalEdgeStyle;rounded=0;orthogonalLoop=1;jettySize=auto;html=1;exitX=0.5;exitY=1;exitDx=0;exitDy=0;entryX=0.5;entryY=0;entryDx=0;entryDy=0;fontSize=14;startArrow=none;startFill=0;" parent="1" source="TidZbL0mFCrHU-RYx2RD-19" target="TidZbL0mFCrHU-RYx2RD-30" edge="1">
          <mxGeometry relative="1" as="geometry" />
        </mxCell>
        <mxCell id="TidZbL0mFCrHU-RYx2RD-19" value="Store the processed events&lt;br&gt;in the SIEM or BigData platform" style="shape=process;whiteSpace=wrap;html=1;backgroundOutline=1;fontSize=11;fillColor=#f5f5f5;fontColor=#333333;strokeColor=#666666;" parent="1" vertex="1">
          <mxGeometry x="369" y="900" width="120" height="60" as="geometry" />
        </mxCell>
        <mxCell id="TidZbL0mFCrHU-RYx2RD-22" value="async&amp;nbsp;&lt;br style=&quot;font-size: 11px;&quot;&gt;request" style="text;html=1;align=center;verticalAlign=middle;resizable=0;points=[];autosize=1;strokeColor=none;fillColor=none;fontSize=11;" parent="1" vertex="1">
          <mxGeometry x="429" y="862" width="60" height="40" as="geometry" />
        </mxCell>
        <mxCell id="TidZbL0mFCrHU-RYx2RD-28" value="mqtt &lt;br style=&quot;font-size: 11px;&quot;&gt;publish" style="text;html=1;align=center;verticalAlign=middle;resizable=0;points=[];autosize=1;strokeColor=none;fillColor=none;fontSize=11;" parent="1" vertex="1">
          <mxGeometry x="40" y="328" width="60" height="40" as="geometry" />
        </mxCell>
        <mxCell id="TidZbL0mFCrHU-RYx2RD-32" value="" style="group" parent="1" vertex="1" connectable="0">
          <mxGeometry x="179" y="998" width="500" height="120" as="geometry" />
        </mxCell>
        <mxCell id="TidZbL0mFCrHU-RYx2RD-30" value="" style="rounded=1;whiteSpace=wrap;html=1;fontSize=14;" parent="TidZbL0mFCrHU-RYx2RD-32" vertex="1">
          <mxGeometry width="500" height="120" as="geometry" />
        </mxCell>
        <mxCell id="TidZbL0mFCrHU-RYx2RD-5" value="Microsoft Sentinel" style="shape=cylinder3;whiteSpace=wrap;html=1;boundedLbl=1;backgroundOutline=1;size=15;fontSize=11;fillColor=#fff2cc;strokeColor=#d6b656;" parent="TidZbL0mFCrHU-RYx2RD-32" vertex="1">
          <mxGeometry x="114" y="18" width="80" height="82" as="geometry" />
        </mxCell>
        <mxCell id="TidZbL0mFCrHU-RYx2RD-7" value="&lt;font style=&quot;font-size: 11px;&quot;&gt;Elasticsearch&amp;nbsp; or Opensearch&lt;/font&gt;" style="shape=cylinder3;whiteSpace=wrap;html=1;boundedLbl=1;backgroundOutline=1;size=15;fontSize=11;fillColor=#d5e8d4;strokeColor=#82b366;" parent="TidZbL0mFCrHU-RYx2RD-32" vertex="1">
          <mxGeometry x="20" y="18" width="80" height="82" as="geometry" />
        </mxCell>
        <mxCell id="TidZbL0mFCrHU-RYx2RD-25" value="AWS S3 or compatible" style="shape=cylinder3;whiteSpace=wrap;html=1;boundedLbl=1;backgroundOutline=1;size=15;fontSize=11;fillColor=#d5e8d4;strokeColor=#82b366;" parent="TidZbL0mFCrHU-RYx2RD-32" vertex="1">
          <mxGeometry x="208" y="18" width="80" height="82" as="geometry" />
        </mxCell>
        <mxCell id="TidZbL0mFCrHU-RYx2RD-26" value="Exabeam" style="shape=cylinder3;whiteSpace=wrap;html=1;boundedLbl=1;backgroundOutline=1;size=15;fontSize=11;fillColor=#fff2cc;strokeColor=#d6b656;" parent="TidZbL0mFCrHU-RYx2RD-32" vertex="1">
          <mxGeometry x="303" y="18" width="80" height="82" as="geometry" />
        </mxCell>
        <mxCell id="TidZbL0mFCrHU-RYx2RD-29" value="Remote Syslog" style="shape=cylinder3;whiteSpace=wrap;html=1;boundedLbl=1;backgroundOutline=1;size=15;fontSize=11;fillColor=#d5e8d4;strokeColor=#82b366;" parent="TidZbL0mFCrHU-RYx2RD-32" vertex="1">
          <mxGeometry x="398" y="18" width="80" height="82" as="geometry" />
        </mxCell>
        <mxCell id="TidZbL0mFCrHU-RYx2RD-35" value="tcp/https" style="text;html=1;align=center;verticalAlign=middle;resizable=0;points=[];autosize=1;strokeColor=none;fillColor=none;fontSize=11;" parent="1" vertex="1">
          <mxGeometry x="424" y="961" width="70" height="30" as="geometry" />
        </mxCell>
        <mxCell id="TidZbL0mFCrHU-RYx2RD-38" value="" style="edgeStyle=orthogonalEdgeStyle;rounded=0;orthogonalLoop=1;jettySize=auto;html=1;fontSize=14;startArrow=classic;startFill=1;" parent="1" target="Hav9Z-SQyte3qZwMK2kI-60" edge="1">
          <mxGeometry relative="1" as="geometry">
            <mxPoint x="299" y="615" as="sourcePoint" />
          </mxGeometry>
        </mxCell>
        <mxCell id="TidZbL0mFCrHU-RYx2RD-42" value="Events" style="rounded=1;whiteSpace=wrap;html=1;fontSize=14;fillColor=#d5e8d4;strokeColor=#82b366;" parent="1" vertex="1">
          <mxGeometry x="179" y="580" width="120" height="65" as="geometry" />
        </mxCell>
        <mxCell id="TidZbL0mFCrHU-RYx2RD-45" style="edgeStyle=orthogonalEdgeStyle;rounded=0;orthogonalLoop=1;jettySize=auto;html=1;fontSize=14;startArrow=classic;startFill=1;" parent="1" source="TidZbL0mFCrHU-RYx2RD-43" target="TidZbL0mFCrHU-RYx2RD-7" edge="1">
          <mxGeometry relative="1" as="geometry" />
        </mxCell>
        <mxCell id="TidZbL0mFCrHU-RYx2RD-43" value="Dashboards" style="rounded=1;whiteSpace=wrap;html=1;fontSize=14;fillColor=#d5e8d4;strokeColor=#82b366;" parent="1" vertex="1">
          <mxGeometry x="179" y="800" width="120" height="65" as="geometry" />
        </mxCell>
        <mxCell id="iqGKRZm4bXf5Kze61LZR-3" style="edgeStyle=orthogonalEdgeStyle;rounded=0;orthogonalLoop=1;jettySize=auto;html=1;entryX=0;entryY=0.5;entryDx=0;entryDy=0;" edge="1" parent="1" source="TidZbL0mFCrHU-RYx2RD-46" target="TidZbL0mFCrHU-RYx2RD-42">
          <mxGeometry relative="1" as="geometry" />
        </mxCell>
        <mxCell id="iqGKRZm4bXf5Kze61LZR-4" style="edgeStyle=orthogonalEdgeStyle;rounded=0;orthogonalLoop=1;jettySize=auto;html=1;entryX=0;entryY=0.5;entryDx=0;entryDy=0;" edge="1" parent="1" source="TidZbL0mFCrHU-RYx2RD-46" target="TidZbL0mFCrHU-RYx2RD-43">
          <mxGeometry relative="1" as="geometry" />
        </mxCell>
        <mxCell id="TidZbL0mFCrHU-RYx2RD-46" value="" style="shape=actor;whiteSpace=wrap;html=1;fontSize=14;" parent="1" vertex="1">
          <mxGeometry x="69" y="690" width="40" height="60" as="geometry" />
        </mxCell>
        <mxCell id="TidZbL0mFCrHU-RYx2RD-49" value="https" style="text;html=1;align=center;verticalAlign=middle;resizable=0;points=[];autosize=1;strokeColor=none;fillColor=none;fontSize=11;" parent="1" vertex="1">
          <mxGeometry x="239" y="915" width="50" height="30" as="geometry" />
        </mxCell>
        <mxCell id="TidZbL0mFCrHU-RYx2RD-50" value="https" style="text;html=1;align=center;verticalAlign=middle;resizable=0;points=[];autosize=1;strokeColor=none;fillColor=none;fontSize=11;" parent="1" vertex="1">
          <mxGeometry x="146" y="705" width="50" height="30" as="geometry" />
        </mxCell>
        <mxCell id="TidZbL0mFCrHU-RYx2RD-60" value="" style="group" parent="1" vertex="1" connectable="0">
          <mxGeometry x="610" y="650" width="161" height="170" as="geometry" />
        </mxCell>
        <mxCell id="TidZbL0mFCrHU-RYx2RD-52" value="" style="rounded=1;whiteSpace=wrap;html=1;fontSize=11;" parent="TidZbL0mFCrHU-RYx2RD-60" vertex="1">
          <mxGeometry width="161" height="170" as="geometry" />
        </mxCell>
        <mxCell id="TidZbL0mFCrHU-RYx2RD-51" value="" style="rounded=0;whiteSpace=wrap;html=1;fontSize=11;fillColor=#dae8fc;strokeColor=#6c8ebf;" parent="TidZbL0mFCrHU-RYx2RD-60" vertex="1">
          <mxGeometry x="21" y="25" width="20" height="20" as="geometry" />
        </mxCell>
        <mxCell id="TidZbL0mFCrHU-RYx2RD-54" value="Fully managed&lt;br&gt;by Akamai" style="text;html=1;align=center;verticalAlign=middle;resizable=0;points=[];autosize=1;strokeColor=none;fillColor=none;fontSize=11;" parent="TidZbL0mFCrHU-RYx2RD-60" vertex="1">
          <mxGeometry x="41" y="15" width="100" height="40" as="geometry" />
        </mxCell>
        <mxCell id="TidZbL0mFCrHU-RYx2RD-56" value="" style="rounded=0;whiteSpace=wrap;html=1;fontSize=11;fillColor=#d5e8d4;strokeColor=#82b366;" parent="TidZbL0mFCrHU-RYx2RD-60" vertex="1">
          <mxGeometry x="21" y="80" width="20" height="20" as="geometry" />
        </mxCell>
        <mxCell id="TidZbL0mFCrHU-RYx2RD-57" value="It can be managed &lt;br&gt;by Akamai or &lt;br&gt;Customer" style="text;html=1;align=center;verticalAlign=middle;resizable=0;points=[];autosize=1;strokeColor=none;fillColor=none;fontSize=11;" parent="TidZbL0mFCrHU-RYx2RD-60" vertex="1">
          <mxGeometry x="41" y="65" width="110" height="50" as="geometry" />
        </mxCell>
        <mxCell id="TidZbL0mFCrHU-RYx2RD-58" value="" style="rounded=0;whiteSpace=wrap;html=1;fontSize=11;fillColor=#fff2cc;strokeColor=#d6b656;" parent="TidZbL0mFCrHU-RYx2RD-60" vertex="1">
          <mxGeometry x="21" y="130" width="20" height="20" as="geometry" />
        </mxCell>
        <mxCell id="TidZbL0mFCrHU-RYx2RD-59" value="Fully managed&lt;br&gt;by Customers" style="text;html=1;align=center;verticalAlign=middle;resizable=0;points=[];autosize=1;strokeColor=none;fillColor=none;fontSize=11;" parent="TidZbL0mFCrHU-RYx2RD-60" vertex="1">
          <mxGeometry x="41" y="120" width="100" height="40" as="geometry" />
        </mxCell>
        <mxCell id="LP0eFUW3Wy_dXtTEHINy-4" style="edgeStyle=orthogonalEdgeStyle;rounded=0;orthogonalLoop=1;jettySize=auto;html=1;entryX=1;entryY=0.5;entryDx=0;entryDy=0;" parent="1" source="LP0eFUW3Wy_dXtTEHINy-1" target="Hav9Z-SQyte3qZwMK2kI-59" edge="1">
          <mxGeometry relative="1" as="geometry" />
        </mxCell>
        <mxCell id="LP0eFUW3Wy_dXtTEHINy-1" value="Converter" style="rounded=1;whiteSpace=wrap;html=1;fontSize=14;fillColor=#d5e8d4;strokeColor=#82b366;" parent="1" vertex="1">
          <mxGeometry x="549" y="467.5" width="120" height="65" as="geometry" />
        </mxCell>
        <mxCell id="LP0eFUW3Wy_dXtTEHINy-5" value="tcp" style="text;html=1;align=center;verticalAlign=middle;resizable=0;points=[];autosize=1;strokeColor=none;fillColor=none;" parent="1" vertex="1">
          <mxGeometry x="319" y="615" width="40" height="30" as="geometry" />
        </mxCell>
        <mxCell id="LP0eFUW3Wy_dXtTEHINy-6" value="tcp" style="text;html=1;align=center;verticalAlign=middle;resizable=0;points=[];autosize=1;strokeColor=none;fillColor=none;" parent="1" vertex="1">
          <mxGeometry x="499" y="500" width="40" height="30" as="geometry" />
        </mxCell>
      </root>
    </mxGraphModel>
  </diagram>
</mxfile>
